<svg xmlns="http://www.w3.org/2000/svg" viewBox="0 0 1000 500">
  <defs>
    <style>
      .continent { fill: #555; stroke: #666; stroke-width: 0.5; opacity: 0.8; }
    </style>
  </defs>
  
  <!-- World Map Continents -->
  <g class="continents">
    <!-- North America -->
    <path class="continent" d="M50 150 C80 130, 120 140, 150 145 C180 150, 220 135, 250 140 C280 145, 310 130, 340 135 C370 140, 390 155, 400 180 C395 210, 380 230, 360 240 C340 250, 320 245, 300 250 C280 255, 260 265, 240 270 C220 275, 200 280, 180 275 C160 270, 140 260, 120 250 C100 240, 80 220, 70 200 C60 180, 55 165, 50 150 Z"/>
    
    <!-- Greenland -->
    <path class="continent" d="M300 60 C320 50, 340 55, 360 60 C380 65, 400 70, 420 75 C440 80, 460 85, 480 90 C500 95, 520 100, 540 105 L540 140 C520 135, 500 130, 480 125 C460 120, 440 115, 420 110 C400 105, 380 100, 360 95 C340 90, 320 85, 300 80 Z"/>
    
    <!-- South America -->
    <path class="continent" d="M250 280 C270 270, 290 275, 310 280 C330 285, 350 290, 370 295 C390 300, 410 305, 430 310 C450 315, 470 320, 490 325 L490 420 C470 415, 450 410, 430 405 C410 400, 390 395, 370 390 C350 385, 330 380, 310 375 C290 370, 270 365, 250 360 Z"/>
    
    <!-- Europe -->
    <path class="continent" d="M450 120 C470 110, 490 115, 510 120 C530 125, 550 130, 570 135 C590 140, 610 145, 630 150 C650 155, 670 160, 690 165 L690 220 C670 215, 650 210, 630 205 C610 200, 590 195, 570 190 C550 185, 530 180, 510 175 C490 170, 470 165, 450 160 Z"/>
    
    <!-- Africa -->
    <path class="continent" d="M480 180 C500 170, 520 175, 540 180 C560 185, 580 190, 600 195 C620 200, 640 205, 660 210 C680 215, 700 220, 720 225 L720 350 C700 345, 680 340, 660 335 C640 330, 620 325, 600 320 C580 315, 560 310, 540 305 C520 300, 500 295, 480 290 Z"/>
    
    <!-- Asia -->
    <path class="continent" d="M650 80 C680 70, 710 75, 740 80 C770 85, 800 90, 830 95 C860 100, 890 105, 920 110 C950 115, 980 120, 1000 125 L1000 280 C980 275, 950 270, 920 265 C890 260, 860 255, 830 250 C800 245, 770 240, 740 235 C710 230, 680 225, 650 220 Z"/>
    
    <!-- Australia -->
    <path class="continent" d="M750 320 C770 310, 790 315, 810 320 C830 325, 850 330, 870 335 C890 340, 910 345, 930 350 L930 400 C910 395, 890 390, 870 385 C850 380, 830 375, 810 370 C790 365, 770 360, 750 355 Z"/>
    
    <!-- Additional islands and landmasses -->
    <path class="continent" d="M180 100 C200 95, 220 100, 240 105 C260 110, 280 115, 300 120 L300 140 C280 135, 260 130, 240 125 C220 120, 200 115, 180 110 Z"/>
    
    <path class="continent" d="M850 200 C870 195, 890 200, 910 205 C930 210, 950 215, 970 220 L970 260 C950 255, 930 250, 910 245 C890 240, 870 235, 850 230 Z"/>
    
    <!-- Japan -->
    <path class="continent" d="M880 180 C890 175, 900 180, 910 185 C920 190, 930 195, 940 200 L940 220 C930 215, 920 210, 910 205 C900 200, 890 195, 880 190 Z"/>
    
    <!-- Madagascar -->
    <path class="continent" d="M680 300 C690 295, 700 300, 710 305 C720 310, 730 315, 740 320 L740 350 C730 345, 720 340, 710 335 C700 330, 690 325, 680 320 Z"/>
  </g>
</svg>
