<svg xmlns="http://www.w3.org/2000/svg" viewBox="0 0 1000 500">
  <defs>
    <style>
      .land { fill: #666; stroke: #777; stroke-width: 0.5; }
    </style>
  </defs>
  <g class="land">
    <!-- North America -->
    <path d="M158 180c15-25 35-40 60-35 30 8 55 30 85 32 25 2 48-15 72-12 28 3 52 25 78 28 24 3 46-12 69-8 26 4 48 22 72 25 22 3 43-10 65-7 25 3 47 18 70 21v85c-23-3-45-18-70-21-22-3-43 10-65 7-24-3-46-21-72-25-23-4-45 11-69 8-26-3-50-25-78-28-24-3-47 14-72 12-30-2-55-24-85-32-25-5-45 10-60 35v-85z"/>
    
    <!-- Greenland -->
    <path d="M320 80c20-15 42-18 65-15 28 3 52 18 78 20 24 2 46-8 69-5 26 3 48 16 72 18v55c-24-2-46-15-72-18-23-3-45 7-69 5-26-2-50-17-78-20-23-3-45 0-65 15v-55z"/>
    
    <!-- South America -->
    <path d="M280 310c20-28 45-35 75-30 35 6 65 28 100 32 30 4 58-18 88-14 34 4 62 30 95 34v120c-33-4-61-30-95-34-30-4-58 18-88 14-35-4-65-26-100-32-30-5-55 2-75 30v-120z"/>
    
    <!-- Europe -->
    <path d="M480 140c18-22 40-28 65-24 28 4 52 22 80 25 25 3 48-12 73-8 28 4 52 20 78 24 24 3 46-10 70-6 27 4 50 18 75 22v70c-25-4-48-18-75-22-24-4-46 9-70 6-26-4-50-20-78-24-25-4-48 11-73 8-28-3-52-21-80-25-25-4-47 2-65 24v-70z"/>
    
    <!-- Africa -->
    <path d="M520 200c22-20 48-25 78-20 32 5 60 25 92 28 28 3 54-15 82-11 32 4 58 24 88 28 26 4 50-12 76-7 30 5 55 22 82 26v130c-27-4-52-21-82-26-26-5-50 11-76 7-30-4-56-24-88-28-28-4-54 14-82 11-32-3-60-23-92-28-30-5-56 0-78 20v-130z"/>
    
    <!-- Asia -->
    <path d="M640 100c15-18 35-22 58-18 25 4 47 18 72 20 22 2 42-8 64-5 25 3 46 16 70 18 21 2 40-7 61-4 24 3 44 15 67 18 20 3 38-5 57-2 22 3 41 13 62 15v140c-21-2-40-12-62-15-19-3-37 5-57 2-23-3-43-15-67-18-21-3-40 6-61 4-24-2-45-15-70-18-22-3-42 7-64 5-25-2-47-16-72-20-23-4-43 0-58 18v-140z"/>
    
    <!-- Australia -->
    <path d="M760 320c15-20 35-24 58-20 25 4 47 20 72 22 22 2 42-10 64-7 25 3 46 18 70 20v60c-24-2-45-17-70-20-22-3-42 9-64 7-25-2-47-18-72-22-23-4-43 0-58 20v-60z"/>
    
    <!-- Additional landmasses and islands -->
    <path d="M850 180c10-12 22-15 35-12 15 3 28 13 43 15 13 2 25-6 38-4 15 2 28 12 43 14v40c-15-2-28-12-43-14-13-2-25 6-38 4-15-2-28-12-43-15-13-3-25 0-35 12v-40z"/>
  </g>
</svg>
